<svg width="48" height="48" viewBox="0 0 48 48" fill="none" xmlns="http://www.w3.org/2000/svg">
<path fill-rule="evenodd" clip-rule="evenodd" d="M16.7554 1.37143C16.6571 1.37143 16.56 1.39255 16.4706 1.43336L1.77237 8.14342C1.52813 8.25492 1.37143 8.49872 1.37143 8.76721V16.871C1.37143 17.2988 1.75889 17.6222 2.17981 17.5457L6.48915 16.7622C7.75191 16.5326 8.91429 17.5027 8.91429 18.7861V45.9429C8.91429 46.3216 9.22129 46.6286 9.6 46.6286H38.4C38.7787 46.6286 39.0857 46.3216 39.0857 45.9429V18.7861C39.0857 17.5027 40.2481 16.5326 41.5109 16.7622L45.8202 17.5457C46.2411 17.6222 46.6286 17.2988 46.6286 16.871V8.76721C46.6286 8.49872 46.4719 8.25492 46.2276 8.14342L31.5294 1.43336C31.44 1.39255 31.3429 1.37143 31.2446 1.37143H16.7554ZM15.9011 0.185785C16.1692 0.0633593 16.4606 0 16.7554 0H31.2446C31.5394 0 31.8308 0.0633589 32.0989 0.185785L46.7972 6.89585C47.5299 7.23036 48 7.96173 48 8.76721V16.871C48 18.1545 46.8376 19.1246 45.5749 18.895L41.2655 18.1115C40.8446 18.0349 40.4571 18.3583 40.4571 18.7861V45.9429C40.4571 47.079 39.5361 48 38.4 48H9.6C8.46387 48 7.54286 47.079 7.54286 45.9429V18.7861C7.54286 18.3583 7.1554 18.0349 6.73448 18.1115L2.42514 18.895C1.16238 19.1246 0 18.1545 0 16.871V8.76721C0 7.96173 0.470095 7.23036 1.20283 6.89585L15.9011 0.185785Z" fill="white"/>
</svg>
