<svg width="1170" height="400" viewBox="0 0 1170 400" fill="none" xmlns="http://www.w3.org/2000/svg">
<rect width="1170" height="400" rx="20" fill="#018294"/>
<path d="M885.001 330.021H777.001C778.601 319.621 777.667 308.021 777.001 303.521L766 330.021L724.5 331.021L739.5 294.021L702.501 286.521C701.667 284.854 700.501 278.721 702.501 267.521C704.501 256.321 706.667 239.854 707.501 233.021L753.001 261.521C759.001 248.021 772.501 236.521 783.501 233.521C794.501 230.521 805.001 230.521 810.001 229.021C815.001 227.521 817.501 221.521 817.501 218.021C817.501 215.221 818.167 204.521 818.501 199.521C813.501 197.521 809.001 188.021 802.501 185.021C796.001 182.021 790.501 186.521 781.001 183.021C771.501 179.521 776.501 162.021 781.001 154.521C785.501 147.021 799.001 154.521 805.001 148.021C811.001 141.521 827.501 119.521 841.001 131.021C854.501 142.521 859.501 156.021 865.501 175.521C871.501 195.021 861.001 197.521 855.001 200.021C849.001 202.521 850.501 202.021 850.001 214.021C849.501 226.021 851.001 230.521 856.001 230.521C877.501 233.021 885.501 218.021 901.501 202.021C917.501 186.021 931.501 161.521 949.001 135.521C963.001 114.721 984.167 80.5205 993.001 66.0205L979.001 21.5205C1002.6 23.9205 1047.5 33.5205 1067 38.0205L1035 55.5205C1035.33 59.3538 1036 68.8205 1036 76.0205C1036 85.0205 1032.5 86.0205 1027 89.5205C1021.5 93.0205 1021.5 99.0205 1014 111.521C1006.5 124.021 987.001 155.021 976.501 173.021C966.001 191.021 954.501 205.521 940.001 223.021C925.501 240.521 897.001 269.521 892.501 275.021C888.001 280.521 888.001 279.521 887.001 291.021C886.201 300.221 885.334 320.854 885.001 330.021Z" fill="white"/>
<path fill-rule="evenodd" clip-rule="evenodd" d="M976.54 21.1465C976.54 21.8021 979.817 32.2178 983.824 44.2935L991.108 66.25L985.456 74.8279C982.348 79.5452 973.297 94.0526 965.344 107.066C948.968 133.86 926.691 167.828 917.285 180.348C903.834 198.252 885.807 218.095 878.256 223.308C873.076 226.884 865.162 229.406 859.033 229.433C856.802 229.443 855.017 228.679 853.201 226.935C850.336 224.184 850.047 221.733 851.174 209.771L851.751 203.655L855.97 201.906C865.026 198.152 870.061 190.542 868.935 182.311C867.789 173.93 856.633 146.344 851.633 139.529C849.043 136 848.908 135.462 850.047 133.226C853.457 126.532 852.487 118.992 847.696 114.95C844.008 111.84 841.18 111.917 833.992 115.326C821.253 121.367 806.735 132.761 800.754 141.414C798.296 144.969 798.118 145.052 795.705 143.791C792.503 142.116 784.24 142.098 780.278 143.757C775.6 145.717 770.776 150.423 768.404 155.342C765.414 161.545 765.544 170.852 768.796 183.323C772.828 198.784 772.055 203.287 763.823 212.315C759.979 216.532 759.15 218.054 759.15 220.898C759.15 226.911 764.048 231.319 770.731 231.319C779.058 231.319 790.786 223.853 794.783 216.007C797.58 210.516 797.963 201.646 795.767 193.208C794.037 186.564 794.037 186.427 795.763 186.427C796.731 186.427 798.637 187.754 799.997 189.373C801.357 190.994 804.584 193.296 807.167 194.488C809.75 195.681 813.046 197.654 814.49 198.873L817.116 201.089L816.452 211.598C815.792 222.063 815.775 222.122 812.518 225.201C809.464 228.089 808.686 228.336 800.76 228.933C783.218 230.253 772.579 234.419 763.831 243.392C760.999 246.295 757.278 251.32 755.562 254.556C753.795 257.888 751.958 260.257 751.331 260.015C750.719 259.781 740.813 253.167 729.314 245.318C708.557 231.151 705.036 229.118 705.036 231.298C705.036 231.921 703.752 244.655 702.182 259.595C700.613 274.537 699.677 287.111 700.103 287.538C700.529 287.966 703.871 288.594 707.531 288.935C713.988 289.537 714.199 289.636 714.741 292.351C715.048 293.889 715.299 296.134 715.299 297.34C715.299 299.493 715.48 299.535 725.852 299.794L736.405 300.058L730.536 314.087C727.307 321.802 724.657 328.887 724.647 329.83C724.605 333.863 727.005 330.039 732.112 317.941C735.113 310.83 737.711 304.871 737.885 304.696C738.059 304.522 740.264 305.666 742.785 307.239C749.58 311.478 756.839 313.691 764.048 313.723C767.513 313.738 770.346 313.902 770.346 314.089C770.346 314.275 769.086 317.851 767.547 322.036C764.37 330.674 764.254 331.389 766.024 331.389C766.804 331.389 768.682 327.48 770.854 321.335C777.024 303.876 777.035 303.87 776.373 318.529C775.882 329.446 776 331.389 777.156 331.389C778.248 331.389 778.64 329.015 779.132 319.464C779.47 312.906 779.995 305.28 780.299 302.517L780.853 297.495L792.379 297.841C799.571 298.058 803.998 297.836 804.152 297.253C804.289 296.738 793.504 288.906 780.185 279.846C766.867 270.787 755.815 262.908 755.625 262.337C754.949 260.301 761.428 249.813 766.543 244.665C774.738 236.42 784.093 232.844 800.202 231.798L809.066 231.223L816.912 242.961C821.228 249.417 825.217 254.698 825.776 254.697C826.336 254.695 828.052 252.346 829.592 249.478L832.391 244.263L832.964 255.326C833.279 261.412 833.594 271.545 833.663 277.846C833.774 287.842 833.987 289.303 835.337 289.303C836.75 289.303 836.835 287.45 836.311 268.027C835.739 246.818 835.742 246.763 837.434 250.915C838.367 253.207 839.541 255.218 840.043 255.386C840.545 255.553 844.401 250.477 848.613 244.104L856.269 232.518L862.937 231.957C872.53 231.151 879.1 227.614 888.584 218.148C895.016 211.728 896.35 210.772 896.808 212.251C899.578 221.202 908.932 233.183 917.286 238.481L921.346 241.055L917.751 245.305C915.774 247.643 907.831 256.5 900.102 264.987C888.57 277.649 886.045 280.922 886.034 283.224C886.026 284.767 885.391 296.106 884.622 308.421C883.698 323.217 883.538 331.127 884.149 331.739C884.658 332.25 885.311 332.429 885.601 332.14C885.89 331.85 886.799 320.304 887.62 306.482L889.114 281.354L902.302 266.857C942.262 222.935 964.816 195.926 973.171 181.985C975.098 178.771 976.959 176.145 977.307 176.15C977.655 176.156 980.003 176.788 982.525 177.555C985.047 178.322 987.303 178.756 987.538 178.52C988.731 177.324 986.565 175.529 982.67 174.484C980.271 173.841 978.484 173.004 978.7 172.623C978.915 172.243 987.25 158.254 997.221 141.536C1007.19 124.819 1018.04 106.512 1021.34 100.854C1026.3 92.3159 1027.95 90.2481 1031.04 88.6956C1036.8 85.7935 1038.24 82.0367 1037.13 72.7966C1036.13 64.4113 1036.02 61.2979 1036.72 60.171C1037.59 58.7588 1067.84 41.3316 1071.23 40.2888C1073.39 39.6248 1074.48 38.7607 1074.31 37.8507C1074.1 36.7509 1063.61 34.6456 1026.45 28.244C1000.28 23.7352 978.348 20.0261 977.706 20.0008C977.065 19.9765 976.54 20.4918 976.54 21.1465ZM1018.87 29.991L1056.06 36.3225L1044.06 36.8986C1037.46 37.2157 1021.49 37.7637 1008.59 38.1154L985.12 38.756L983.026 32.3955C981.875 28.8977 980.738 25.5093 980.502 24.8659C980.265 24.2234 980.432 23.6885 980.872 23.6782C981.311 23.6679 998.409 26.5082 1018.87 29.991ZM1028.82 51.347C1010.11 57.7562 994.395 62.8635 993.898 62.698C993.402 62.5315 991.423 57.687 989.5 51.9316L986.005 41.4663L998.767 41.3372C1005.78 41.2662 1020.13 40.9239 1030.65 40.575C1067.49 39.3555 1067.72 38.0246 1028.82 51.347ZM976.54 43.0646C970.177 45.4074 968.804 46.2444 969.759 47.2021C971.136 48.5815 980.272 45.5636 980.272 43.7296C980.272 42.3716 979.025 42.149 976.54 43.0646ZM948.756 60.43C945.564 63.6584 942.952 67.0253 942.952 67.9119C942.952 68.7985 943.159 69.5233 943.412 69.5233C944.219 69.5233 956.947 56.2159 956.947 55.3704C956.947 53.2802 954.066 55.059 948.756 60.43ZM1018.52 58.7279C1018.52 58.9636 1015.48 61.542 1011.76 64.4581C1004.68 70.0049 1001.73 72.9042 1001.73 74.3033C1001.73 75.6388 1003.77 75.2628 1005.62 73.5869C1006.56 72.7358 1007.34 72.4197 1007.34 72.8855C1007.35 73.3512 1007.72 74.3023 1008.16 74.9991C1008.82 76.0484 1009.36 76.0035 1011.29 74.74C1013.57 73.2399 1013.63 73.268 1014.76 76.2775C1016.76 81.5878 1017.87 83.5396 1020.97 87.1674L1023.98 90.696L1019.66 98.1124C1012.52 110.346 976.397 170.966 975.991 171.381C975.784 171.594 974.532 171.273 973.208 170.669C969.57 169.007 968.316 170.471 971.32 172.873L973.876 174.916L969.676 181.84C964.801 189.878 952.857 205.041 937.464 222.737C931.502 229.59 925.878 236.07 924.964 237.136L923.304 239.075L918.132 235.503C909.194 229.332 900.997 218.385 899.582 210.728C899.027 207.725 899.4 206.951 903.871 201.843C910.522 194.241 926.778 172.368 935.309 159.539C941.606 150.071 943.885 147.482 943.885 149.798C943.885 150.227 946.628 153.453 949.982 156.967C954.496 161.696 956.351 163.082 957.128 162.304C957.905 161.525 956.506 159.481 951.739 154.434C948.2 150.684 944.818 147.667 944.226 147.728C943.634 147.791 945.489 144.214 948.35 139.779C951.211 135.345 961.696 118.459 971.65 102.256C981.604 86.0535 991.381 71.1328 993.377 69.0987C996.19 66.2331 999.164 64.6152 1006.6 61.9068C1015.86 58.5324 1018.52 57.8217 1018.52 58.7279ZM1031.92 66.2079C1030.36 70.7961 1024.31 77.0052 1021.39 77.0052C1019.17 77.0052 1016.47 74.4267 1016.85 72.6685C1017.09 71.5406 1030.93 62.3267 1032.7 62.1172C1033.05 62.076 1032.7 63.9166 1031.92 66.2079ZM1033.41 75.2329C1031.31 80.3112 1024.09 83.737 1020.78 81.2231C1019.07 79.9268 1019.09 79.8688 1021.34 79.8408C1024.57 79.7996 1030.3 75.708 1032.23 72.0681C1033.51 69.6524 1033.9 69.3942 1034.19 70.7662C1034.39 71.7071 1034.04 73.7169 1033.41 75.2329ZM1034.65 80.7573C1033.96 83.4003 1029.07 87.2927 1026.44 87.2927C1022.64 87.2927 1023.06 85.7262 1027.29 84.1054C1029.53 83.2497 1032.1 81.7225 1033.02 80.7124C1035.09 78.4164 1035.26 78.4211 1034.65 80.7573ZM933.019 87.0589C931.239 93.0846 930.82 99.7743 932.195 100.196C932.693 100.35 933.784 97.4035 934.618 93.6495C935.452 89.8964 936.454 85.6682 936.845 84.2532C937.404 82.2322 937.241 81.6813 936.081 81.6813C935.092 81.6813 934.083 83.4517 933.019 87.0589ZM931.314 116.244C930.711 117.221 933.018 128.277 934.695 132.453C935.272 133.887 936.211 134.893 936.782 134.69C937.986 134.262 937.934 133.642 936.056 126.105C935.287 123.019 934.417 119.337 934.123 117.922C933.582 115.332 932.336 114.587 931.314 116.244ZM841.844 134.644C847.357 137.266 851.111 142.865 857.544 158.059C864.555 174.616 866.944 183.003 866.035 187.86C865.222 192.204 859.347 198.121 854.358 199.619C852.27 200.245 850.17 201.232 849.69 201.812C849.211 202.391 848.524 207.786 848.166 213.801L847.514 224.736L841.053 230.365C837.499 233.461 834.306 235.99 833.957 235.985C833.609 235.98 830.012 233.176 825.965 229.753L818.607 223.531L819.243 211.242L819.878 198.953L816.385 196.664C814.464 195.407 811.192 191.852 809.113 188.765L805.334 183.153L798.336 183.107C785.347 183.023 778.753 177.948 778.747 168.029C778.742 161.383 781.607 157.973 788.498 156.428C792.773 155.468 794.232 155.533 798.277 156.86C801.722 157.989 803.524 158.156 804.811 157.465C807.937 155.788 810.327 151.853 811.417 146.587C812.318 142.24 813.005 141.116 815.961 139.155C824.308 133.618 835.563 131.655 841.844 134.644ZM840.969 137.458C839.996 138.433 841.228 139.666 843.175 139.666C844.172 139.666 844.986 139.034 844.986 138.263C844.986 136.876 842.122 136.302 840.969 137.458ZM820.495 145.352C818.187 146.7 818.468 148.27 820.952 147.915C822.102 147.75 823.182 146.879 823.353 145.979C823.704 144.134 822.886 143.956 820.495 145.352ZM836.589 147.421C836.589 148.085 838.504 150.505 840.845 152.798C847.18 159.005 849.049 162.502 848.926 167.914C848.783 174.227 850.957 173.395 851.332 166.993C851.671 161.176 850.409 158.505 843.994 151.469C839.379 146.408 836.589 144.883 836.589 147.421ZM845.919 147.615C845.919 148.394 846.749 149.018 847.785 149.018C848.822 149.018 849.651 148.394 849.651 147.615C849.651 146.836 848.822 146.212 847.785 146.212C846.749 146.212 845.919 146.836 845.919 147.615ZM1010.13 150.421C1010.13 151.369 1011.07 151.824 1013.05 151.824C1016.73 151.824 1021.61 154.79 1023.01 157.879C1024.27 160.645 1025.99 161.002 1025.99 158.497C1025.99 156.153 1022.7 152.103 1019.42 150.402C1015.83 148.543 1010.13 148.554 1010.13 150.421ZM823.236 153.363C821.954 154.648 822.618 156.633 824.227 156.322C825.125 156.148 825.86 155.416 825.86 154.695C825.86 153.218 824.214 152.383 823.236 153.363ZM993.77 161.054C990.795 165.561 987.507 174.077 988.267 175.309C989.142 176.729 991.263 174.525 991.924 171.51C992.241 170.065 993.914 166.632 995.643 163.885C998.618 159.154 998.987 157.435 997.024 157.435C996.548 157.435 995.084 159.063 993.77 161.054ZM787.82 164.991C785.753 166.212 786.693 167.991 789.016 167.252C791.113 166.585 797.103 168.984 799.887 171.606C802.072 173.664 804.202 173.251 803.317 170.941C802.632 169.15 795.906 165.262 792.272 164.558C790.732 164.259 788.729 164.454 787.82 164.991ZM1016.19 174.337C1014.65 175.322 1010.97 176.608 1008.01 177.196C1002.43 178.299 1000.58 179.498 1003.01 180.434C1006.75 181.872 1020.96 176.546 1020.64 173.825C1020.46 172.303 1019.13 172.455 1016.19 174.337ZM827.259 180.858C827.259 184.171 831.36 187.363 835.614 187.363C838.347 187.363 839.388 186.975 839.388 185.96C839.388 185.004 838.423 184.552 836.356 184.543C832.784 184.526 831.657 183.89 830.166 181.05C828.786 178.425 827.259 178.324 827.259 180.858ZM984.937 199.465C984.937 205.152 985.33 209.007 985.951 209.391C987.815 210.545 988.217 208.471 987.911 199.287C987.673 192.141 987.319 190.168 986.272 190.168C985.203 190.168 984.937 192.023 984.937 199.465ZM986.803 225.585C986.803 226.032 987.453 230.135 988.247 234.701C989.633 242.67 990.747 245.446 992.039 244.152C992.583 243.606 991.007 230.387 989.922 226.409C989.475 224.766 986.803 224.06 986.803 225.585ZM824.927 232.644C828.006 235.199 830.885 237.589 831.325 237.958C832.117 238.622 826.593 250.04 825.497 250.005C824.795 249.982 812.331 231.759 812.331 230.757C812.331 230.36 813.239 229.068 814.349 227.883C816.621 225.459 815.847 225.111 824.927 232.644ZM851.619 229.342L853.793 231.107L847.218 241.042L840.642 250.977L838.242 244.911L835.84 238.844L842.046 233.245C845.459 230.165 848.52 227.631 848.848 227.612C849.176 227.594 850.423 228.372 851.619 229.342ZM747.794 261.393C769.178 275.876 787.093 288.108 787.607 288.574C788.855 289.707 789.376 289.92 745.155 271.204L706.435 254.815L706.568 250.029C706.74 243.82 707.837 235.06 708.442 235.06C708.703 235.06 726.411 246.91 747.794 261.393ZM748.385 275.835C771.456 285.551 789.652 293.631 788.818 293.792C787.425 294.062 702.905 285.714 702.663 285.283C702.284 284.606 705.461 257.649 705.895 257.88C706.192 258.039 725.313 266.119 748.385 275.835ZM991.292 267.559C990.986 276.743 991.388 278.817 993.252 277.663C993.873 277.279 994.267 273.424 994.267 267.738C994.267 260.295 994 258.44 992.932 258.44C991.885 258.44 991.53 260.413 991.292 267.559ZM984.725 301.695C981.393 310.135 981.275 314.431 984.509 309.482C986.12 307.018 990.535 295.627 990.535 293.937C990.535 293.446 989.995 293.044 989.338 293.044C988.679 293.044 986.603 296.937 984.725 301.695ZM705.444 297.067C704.459 299.641 705.429 306.605 706.773 306.605C708.483 306.605 708.827 296.652 707.136 296.085C706.494 295.87 705.733 296.313 705.444 297.067ZM773.936 304.253C772.208 309.383 771.758 309.929 768.548 310.795C762.269 312.489 749.549 309.006 742.59 303.685C740.922 302.409 739.557 300.992 739.557 300.534C739.557 299.373 744.309 298.994 761.188 298.813L775.822 298.655L773.936 304.253ZM927.738 307.67C926.722 308.69 928.034 309.878 930.178 309.882C933.356 309.888 937.844 313.097 939.174 316.314C940.354 319.17 942.955 320.373 942.948 318.061C942.941 315.819 939.214 310.783 936.196 308.938C933.223 307.121 928.928 306.478 927.738 307.67ZM912.398 315.723C911.889 316.367 910.975 318.443 910.365 320.339C909.102 324.271 910.264 330.356 912.658 332.348C914.663 334.016 915.459 332.759 914.18 329.945C912.695 326.68 912.818 321.544 914.458 318.367C916.199 314.992 914.601 312.941 912.398 315.723ZM710.361 321.687C708.933 323.117 718.995 337.935 721.393 337.935C723.412 337.935 723.133 337.192 719.141 331.942C717.149 329.324 714.829 325.813 713.985 324.141C712.482 321.161 711.529 320.516 710.361 321.687ZM965.415 329.556C958.629 335.921 957.292 338.625 962.235 335.988C965.59 334.198 974.674 325.521 974.674 324.106C974.674 321.759 972.134 323.255 965.415 329.556ZM935.483 337.363C932.571 341.027 931.897 341.414 929.19 340.981C926.032 340.476 924.835 342.161 927.597 343.224C928.874 343.715 928.859 343.974 927.47 345.513C926.003 347.138 926.004 347.287 927.478 347.854C928.442 348.226 929.848 347.71 931.11 346.522C932.664 345.057 934.647 344.514 939.217 344.298C943.885 344.079 945.331 343.671 945.551 342.51C945.792 341.244 945.095 341.078 941.128 341.461C938.539 341.71 936.421 341.732 936.421 341.51C936.421 341.286 937.47 339.678 938.753 337.935C941.359 334.395 941.641 333.259 939.915 333.259C939.271 333.259 937.277 335.105 935.483 337.363ZM732.607 348.146C732.316 348.618 734.915 350.877 738.383 353.166C747.11 358.927 748.643 359.663 749.39 358.45C750.161 357.202 750.67 357.65 742.084 352.031C734.6 347.134 733.506 346.686 732.607 348.146ZM904.736 359.483C898.058 362.82 896.27 364.351 897.885 365.348C898.946 366.003 914.303 358.287 914.749 356.874C915.356 354.947 912.133 355.787 904.736 359.483ZM763.245 364.289C762.373 365.705 763.675 366.514 771.102 369.167C778.393 371.772 781.912 372.249 781.349 370.555C780.836 369.011 763.94 363.163 763.245 364.289ZM872.102 371.064C863.363 373.347 860.319 376.056 867.62 375.053C874.878 374.056 883.239 371.376 883.239 370.047C883.239 368.428 881.626 368.575 872.102 371.064ZM795.765 374.643C796.159 375.848 804.342 377.825 810.932 378.307C813.674 378.508 814.664 378.226 814.664 377.243C814.664 376.281 812.442 375.576 806.733 374.729C796.585 373.224 795.296 373.214 795.765 374.643ZM838.922 376.232C832.373 376.634 830.525 377.051 830.525 378.128C830.525 379.258 831.966 379.46 838.455 379.244C847.462 378.945 849.902 378.436 849.411 376.961C848.969 375.632 848.844 375.623 838.922 376.232Z" fill="black"/>
<rect x="100" y="153" width="175" height="58" rx="29" fill="#F7D047"/>
<path d="M131.84 190H137.008C139.763 190 141.473 188.518 141.473 186.105C141.473 184.281 140.466 183.198 139.155 182.723C140.01 182.343 140.865 181.355 140.865 180.12C140.865 177.935 139.25 176.7 136.761 176.7H131.84V190ZM133.797 182.077V178.353H136.647C138.148 178.353 138.946 178.999 138.946 180.215C138.946 181.45 138.148 182.077 136.666 182.077H133.797ZM133.797 188.252V183.806H136.742C138.604 183.806 139.516 184.585 139.516 186.029C139.516 187.473 138.604 188.252 136.742 188.252H133.797ZM147.784 190.152C150.653 190.152 152.705 188.081 152.705 185.212C152.705 182.343 150.653 180.272 147.784 180.272C144.915 180.272 142.844 182.343 142.844 185.212C142.844 188.081 144.915 190.152 147.784 190.152ZM147.784 188.537C145.96 188.537 144.725 187.169 144.725 185.212C144.725 183.255 145.96 181.887 147.784 181.887C149.589 181.887 150.824 183.255 150.824 185.212C150.824 187.169 149.589 188.537 147.784 188.537ZM158.899 190.152C161.768 190.152 163.82 188.081 163.82 185.212C163.82 182.343 161.768 180.272 158.899 180.272C156.03 180.272 153.959 182.343 153.959 185.212C153.959 188.081 156.03 190.152 158.899 190.152ZM158.899 188.537C157.075 188.537 155.84 187.169 155.84 185.212C155.84 183.255 157.075 181.887 158.899 181.887C160.704 181.887 161.939 183.255 161.939 185.212C161.939 187.169 160.704 188.537 158.899 188.537ZM172.217 190H174.497L170.108 184.167L174.136 180.424H171.742L167.581 184.243V176.415H165.719V190H167.581V186.523L168.778 185.421L172.217 190ZM183.988 180.272C181.727 180.272 180.017 181.678 179.865 183.559H181.575C181.632 182.59 182.601 181.754 183.931 181.754C185.413 181.754 186.249 182.552 186.249 183.711C186.249 184.053 186.04 184.281 185.603 184.281H183.608C181.347 184.281 179.884 185.421 179.884 187.264C179.884 188.974 181.176 190.152 183.133 190.152C184.577 190.152 185.793 189.468 186.249 188.442V190H188.092V183.825C188.092 181.697 186.458 180.272 183.988 180.272ZM183.494 188.689C182.43 188.689 181.708 188.1 181.708 187.226C181.708 186.219 182.525 185.573 183.779 185.573H186.249V185.801C186.249 187.568 185.242 188.689 183.494 188.689ZM194.777 190H198.862C202.567 190 205.569 187.682 205.569 183.35C205.569 179.018 202.567 176.7 198.862 176.7H194.777V190ZM196.753 188.252V178.448H198.748C201.218 178.448 203.536 179.835 203.536 183.35C203.536 186.865 201.218 188.252 198.748 188.252H196.753ZM214.323 186.884C214.057 187.967 213.145 188.575 211.739 188.575C210.067 188.575 208.889 187.34 208.737 185.535H216.052C216.071 185.364 216.09 185.06 216.09 184.813C216.09 182.381 214.513 180.272 211.549 180.272C208.604 180.272 206.932 182.476 206.932 185.155C206.932 187.815 208.775 190.152 211.739 190.152C214.095 190.152 215.824 188.86 216.166 186.884H214.323ZM211.549 181.754C213.126 181.754 214.114 182.723 214.228 184.186H208.794C209.079 182.59 210.048 181.754 211.549 181.754ZM217.967 190H219.81V184.433C219.81 182.913 220.684 181.887 222.147 181.887C223.401 181.887 224.161 182.913 224.161 184.433V190H226.004V184.433C226.004 182.913 226.878 181.887 228.341 181.887C229.614 181.887 230.374 182.913 230.374 184.433V190H232.217V183.92C232.217 181.697 230.925 180.272 228.854 180.272C227.372 180.272 226.118 181.146 225.738 182.229C225.358 180.975 224.199 180.272 222.641 180.272C221.235 180.272 220.209 181.051 219.81 182.134V180.424H217.967V190ZM238.962 190.152C241.831 190.152 243.883 188.081 243.883 185.212C243.883 182.343 241.831 180.272 238.962 180.272C236.093 180.272 234.022 182.343 234.022 185.212C234.022 188.081 236.093 190.152 238.962 190.152ZM238.962 188.537C237.138 188.537 235.903 187.169 235.903 185.212C235.903 183.255 237.138 181.887 238.962 181.887C240.767 181.887 242.002 183.255 242.002 185.212C242.002 187.169 240.767 188.537 238.962 188.537Z" fill="#2D2D2D"/>
<path d="M108.74 116H112.692V92.896H121.014V89.4H100.418V92.896H108.74V116ZM132.86 100.04V96.848H130.542C127.844 96.848 126.324 97.988 125.45 100.534V96.848H121.764V116H125.45V107.336C125.45 103.156 126.59 100.04 130.086 100.04H132.86ZM151.635 96.848H147.835L142.781 111.212L137.765 96.848H133.965L141.071 116.19L138.487 123.752H142.021L144.909 115.316L151.635 96.848ZM172.184 116.304C177.884 116.304 181.988 113.454 181.988 108.59C181.988 98.444 166.826 102.738 166.826 96.278C166.826 94.036 168.764 92.592 171.956 92.592C175.224 92.592 177.352 94.378 177.618 97.114H181.456C181.114 92.25 177.39 89.096 171.956 89.096C166.598 89.096 162.874 92.022 162.874 96.278C162.874 106.082 177.96 102.244 177.96 108.628C177.96 111.516 175.528 112.808 172.184 112.808C168.422 112.808 166.18 110.604 165.876 107.184H162.038C162.342 112.694 166.18 116.304 172.184 116.304ZM194.407 116.304C200.145 116.304 204.249 112.162 204.249 106.424C204.249 100.686 200.145 96.544 194.407 96.544C188.669 96.544 184.527 100.686 184.527 106.424C184.527 112.162 188.669 116.304 194.407 116.304ZM194.407 113.074C190.759 113.074 188.289 110.338 188.289 106.424C188.289 102.51 190.759 99.774 194.407 99.774C198.017 99.774 200.487 102.51 200.487 106.424C200.487 110.338 198.017 113.074 194.407 113.074ZM220.284 90.844V109.73C220.284 113.644 222.754 116 226.63 116H229.632V112.808H226.934C225.072 112.808 223.97 111.668 223.97 109.616V100.04H229.632V96.848H223.97V90.844H220.284ZM218.574 100.04V96.848H216.636C213.938 96.848 212.418 97.988 211.544 100.534V96.848H207.858V116H211.544V107.336C211.544 103.156 212.684 100.04 216.18 100.04H218.574ZM233.468 116H237.154V88.83H233.468V116ZM255.716 109.768C255.184 111.934 253.36 113.15 250.548 113.15C247.204 113.15 244.848 110.68 244.544 107.07H259.174C259.212 106.728 259.25 106.12 259.25 105.626C259.25 100.762 256.096 96.544 250.168 96.544C244.278 96.544 240.934 100.952 240.934 106.31C240.934 111.63 244.62 116.304 250.548 116.304C255.26 116.304 258.718 113.72 259.402 109.768H255.716ZM250.168 99.508C253.322 99.508 255.298 101.446 255.526 104.372H244.658C245.228 101.18 247.166 99.508 250.168 99.508ZM274.098 100.04V96.848H271.78C269.082 96.848 267.562 97.988 266.688 100.534V96.848H263.002V116H266.688V107.336C266.688 103.156 267.828 100.04 271.324 100.04H274.098ZM286.241 116H290.193V104.334H300.795V100.838H290.193V92.896H303.303V89.4H286.241V116ZM313.529 116.304C319.267 116.304 323.371 112.162 323.371 106.424C323.371 100.686 319.267 96.544 313.529 96.544C307.791 96.544 303.649 100.686 303.649 106.424C303.649 112.162 307.791 116.304 313.529 116.304ZM313.529 113.074C309.881 113.074 307.411 110.338 307.411 106.424C307.411 102.51 309.881 99.774 313.529 99.774C317.139 99.774 319.609 102.51 319.609 106.424C319.609 110.338 317.139 113.074 313.529 113.074ZM338.075 100.04V96.848H335.757C333.059 96.848 331.539 97.988 330.665 100.534V96.848H326.979V116H330.665V107.336C330.665 103.156 331.805 100.04 335.301 100.04H338.075ZM350.218 116H354.17V104.334H364.772V100.838H354.17V92.896H367.28V89.4H350.218V116ZM380.64 100.04V96.848H378.322C375.624 96.848 374.104 97.988 373.23 100.534V96.848H369.544V116H373.23V107.336C373.23 103.156 374.37 100.04 377.866 100.04H380.64ZM396.546 109.768C396.014 111.934 394.19 113.15 391.378 113.15C388.034 113.15 385.678 110.68 385.374 107.07H400.004C400.042 106.728 400.08 106.12 400.08 105.626C400.08 100.762 396.926 96.544 390.998 96.544C385.108 96.544 381.764 100.952 381.764 106.31C381.764 111.63 385.45 116.304 391.378 116.304C396.09 116.304 399.548 113.72 400.232 109.768H396.546ZM390.998 99.508C394.152 99.508 396.128 101.446 396.356 104.372H385.488C386.058 101.18 387.996 99.508 390.998 99.508ZM417.513 109.768C416.981 111.934 415.157 113.15 412.345 113.15C409.001 113.15 406.645 110.68 406.341 107.07H420.971C421.009 106.728 421.047 106.12 421.047 105.626C421.047 100.762 417.893 96.544 411.965 96.544C406.075 96.544 402.731 100.952 402.731 106.31C402.731 111.63 406.417 116.304 412.345 116.304C417.057 116.304 420.515 113.72 421.199 109.768H417.513ZM411.965 99.508C415.119 99.508 417.095 101.446 417.323 104.372H406.455C407.025 101.18 408.963 99.508 411.965 99.508ZM426.053 109.578H428.827L429.777 89.4H425.065L426.053 109.578ZM425.407 111.896V116H429.473V111.896H425.407Z" fill="white"/>
<path d="M146.036 318H147.638L142.616 305.4H141.23L136.208 318H137.81L139.124 314.598H144.74L146.036 318ZM139.646 313.23L141.932 307.29L144.2 313.23H139.646ZM149.031 318H150.471V305.202H149.031V318ZM152.987 318H154.427V305.202H152.987V318ZM167.819 315.084C167.531 316.218 166.595 316.866 165.119 316.866C163.409 316.866 162.167 315.534 162.059 313.662H169.151C169.169 313.536 169.187 313.23 169.187 313.032C169.187 310.62 167.603 308.784 164.957 308.784C162.293 308.784 160.637 310.746 160.637 313.41C160.637 316.002 162.437 318.144 165.119 318.144C167.369 318.144 168.971 316.938 169.277 315.084H167.819ZM164.957 310.008C166.577 310.008 167.603 310.98 167.711 312.51H162.131C162.401 310.908 163.427 310.008 164.957 310.008ZM176.76 318.144C179.55 318.144 181.8 316.434 182.07 314.076H180.486C180.306 315.624 178.722 316.758 176.76 316.758C174.132 316.758 172.278 314.976 172.278 311.7C172.278 308.424 174.132 306.642 176.76 306.642C178.686 306.642 180.252 307.776 180.468 309.324H182.088C181.746 306.966 179.496 305.256 176.76 305.256C173.628 305.256 170.694 307.344 170.694 311.7C170.694 316.038 173.61 318.144 176.76 318.144ZM187.956 318.144C190.656 318.144 192.582 316.182 192.582 313.464C192.582 310.728 190.656 308.784 187.956 308.784C185.274 308.784 183.348 310.728 183.348 313.464C183.348 316.182 185.274 318.144 187.956 318.144ZM187.956 316.848C186.102 316.848 184.824 315.444 184.824 313.464C184.824 311.484 186.102 310.08 187.956 310.08C189.828 310.08 191.106 311.484 191.106 313.464C191.106 315.444 189.828 316.848 187.956 316.848ZM194.434 318H195.874V312.672C195.874 311.124 196.774 310.062 198.304 310.062C199.564 310.062 200.338 311.124 200.338 312.672V318H201.778V312.672C201.778 311.124 202.678 310.062 204.19 310.062C205.468 310.062 206.242 311.124 206.242 312.672V318H207.682V312.294C207.682 310.098 206.494 308.784 204.532 308.784C203.146 308.784 201.94 309.63 201.598 310.71C201.274 309.468 200.104 308.784 198.61 308.784C197.224 308.784 196.216 309.576 195.874 310.674V308.928H194.434V318ZM210.061 318H211.501V312.672C211.501 311.124 212.401 310.062 213.931 310.062C215.191 310.062 215.965 311.124 215.965 312.672V318H217.405V312.672C217.405 311.124 218.305 310.062 219.817 310.062C221.095 310.062 221.869 311.124 221.869 312.672V318H223.309V312.294C223.309 310.098 222.121 308.784 220.159 308.784C218.773 308.784 217.567 309.63 217.225 310.71C216.901 309.468 215.731 308.784 214.237 308.784C212.851 308.784 211.843 309.576 211.501 310.674V308.928H210.061V318ZM232.348 315.084C232.06 316.218 231.124 316.866 229.648 316.866C227.938 316.866 226.696 315.534 226.588 313.662H233.68C233.698 313.536 233.716 313.23 233.716 313.032C233.716 310.62 232.132 308.784 229.486 308.784C226.822 308.784 225.166 310.746 225.166 313.41C225.166 316.002 226.966 318.144 229.648 318.144C231.898 318.144 233.5 316.938 233.806 315.084H232.348ZM229.486 310.008C231.106 310.008 232.132 310.98 232.24 312.51H226.66C226.93 310.908 227.956 310.008 229.486 310.008ZM240.713 310.206V308.928H239.561C238.229 308.928 237.473 309.522 237.095 310.764V308.928H235.655V318H237.095V314.004C237.095 311.862 237.617 310.206 239.453 310.206H240.713ZM245.713 318.144C248.017 318.144 249.511 316.92 249.817 315.066H248.413C248.089 316.164 247.099 316.848 245.731 316.848C243.769 316.848 242.797 315.318 242.797 313.464C242.797 311.61 243.751 310.08 245.731 310.08C247.099 310.08 248.233 310.89 248.413 311.988H249.835C249.565 309.972 247.747 308.784 245.713 308.784C242.851 308.784 241.303 311.034 241.303 313.464C241.303 315.894 242.851 318.144 245.713 318.144ZM258.258 315.084C257.97 316.218 257.034 316.866 255.558 316.866C253.848 316.866 252.606 315.534 252.498 313.662H259.59C259.608 313.536 259.626 313.23 259.626 313.032C259.626 310.62 258.042 308.784 255.396 308.784C252.732 308.784 251.076 310.746 251.076 313.41C251.076 316.002 252.876 318.144 255.558 318.144C257.808 318.144 259.41 316.938 259.716 315.084H258.258ZM255.396 310.008C257.016 310.008 258.042 310.98 258.15 312.51H252.57C252.84 310.908 253.866 310.008 255.396 310.008ZM265.926 321.672H267.366V316.542C267.906 317.514 269.076 318.144 270.354 318.144C273.162 318.144 274.746 316.11 274.746 313.464C274.746 310.818 273.198 308.784 270.39 308.784C269.094 308.784 267.924 309.432 267.366 310.422V308.928H265.926V321.672ZM270.246 316.848C268.428 316.848 267.24 315.516 267.24 313.464C267.24 311.412 268.428 310.08 270.246 310.08C272.064 310.08 273.252 311.412 273.252 313.464C273.252 315.516 272.064 316.848 270.246 316.848ZM276.666 318H278.106V305.202H276.666V318ZM283.919 308.784C281.885 308.784 280.229 310.08 280.067 311.826H281.435C281.507 310.836 282.551 310.008 283.883 310.008C285.431 310.008 286.313 310.854 286.313 312.096C286.313 312.384 286.133 312.582 285.737 312.582H283.685C281.489 312.582 280.067 313.68 280.067 315.408C280.067 317.064 281.309 318.144 283.217 318.144C284.621 318.144 285.827 317.478 286.313 316.434V318H287.753V312.15C287.753 310.134 286.277 308.784 283.919 308.784ZM283.433 316.92C282.281 316.92 281.543 316.326 281.543 315.39C281.543 314.328 282.425 313.68 283.775 313.68H286.313V313.914C286.313 315.786 285.251 316.92 283.433 316.92ZM290.821 306.03V308.928H288.931V310.206H290.821V315.156C290.821 316.92 291.937 318 293.665 318H295.051V316.722H293.719C292.837 316.722 292.261 316.128 292.261 315.12V310.206H295.051V308.928H292.261V306.03H290.821ZM297.606 318H299.046V310.206H301.872V308.928H299.046V308.028C299.046 307.056 299.622 306.48 300.504 306.48H301.872V305.202H300.432C298.704 305.202 297.606 306.282 297.606 308.01V308.928H295.716V310.206H297.606V318ZM306.924 318.144C309.624 318.144 311.55 316.182 311.55 313.464C311.55 310.728 309.624 308.784 306.924 308.784C304.242 308.784 302.316 310.728 302.316 313.464C302.316 316.182 304.242 318.144 306.924 318.144ZM306.924 316.848C305.07 316.848 303.792 315.444 303.792 313.464C303.792 311.484 305.07 310.08 306.924 310.08C308.796 310.08 310.074 311.484 310.074 313.464C310.074 315.444 308.796 316.848 306.924 316.848ZM318.461 310.206V308.928H317.309C315.977 308.928 315.221 309.522 314.843 310.764V308.928H313.403V318H314.843V314.004C314.843 311.862 315.365 310.206 317.201 310.206H318.461ZM319.995 318H321.435V312.672C321.435 311.124 322.335 310.062 323.865 310.062C325.125 310.062 325.899 311.124 325.899 312.672V318H327.339V312.672C327.339 311.124 328.239 310.062 329.751 310.062C331.029 310.062 331.803 311.124 331.803 312.672V318H333.243V312.294C333.243 310.098 332.055 308.784 330.093 308.784C328.707 308.784 327.501 309.63 327.159 310.71C326.835 309.468 325.665 308.784 324.171 308.784C322.785 308.784 321.777 309.576 321.435 310.674V308.928H319.995V318ZM338.772 318.144C340.77 318.144 342.102 317.1 342.102 315.48C342.102 311.322 336.792 313.752 336.792 311.304C336.792 310.512 337.494 310.008 338.556 310.008C339.384 310.008 340.518 310.404 340.644 311.556H342.048C341.94 309.882 340.59 308.784 338.592 308.784C336.684 308.784 335.388 309.792 335.388 311.322C335.388 315.246 340.662 312.816 340.662 315.516C340.662 316.254 339.906 316.884 338.772 316.884C337.458 316.884 336.666 316.254 336.54 315.084H335.154C335.298 316.974 336.666 318.144 338.772 318.144ZM351.516 318.144C353.514 318.144 354.846 317.1 354.846 315.48C354.846 311.322 349.536 313.752 349.536 311.304C349.536 310.512 350.238 310.008 351.3 310.008C352.128 310.008 353.262 310.404 353.388 311.556H354.792C354.684 309.882 353.334 308.784 351.336 308.784C349.428 308.784 348.132 309.792 348.132 311.322C348.132 315.246 353.406 312.816 353.406 315.516C353.406 316.254 352.65 316.884 351.516 316.884C350.202 316.884 349.41 316.254 349.284 315.084H347.898C348.042 316.974 349.41 318.144 351.516 318.144ZM364.633 308.928H363.193V313.824C363.193 315.588 362.095 316.83 360.529 316.83C359.161 316.83 358.261 315.786 358.261 314.238V308.928H356.821V314.472C356.821 316.686 358.153 318.144 360.205 318.144C361.609 318.144 362.725 317.514 363.193 316.254V318H364.633V308.928ZM367.088 321.672H368.528V316.542C369.068 317.514 370.238 318.144 371.516 318.144C374.324 318.144 375.908 316.11 375.908 313.464C375.908 310.818 374.36 308.784 371.552 308.784C370.256 308.784 369.086 309.432 368.528 310.422V308.928H367.088V321.672ZM371.408 316.848C369.59 316.848 368.402 315.516 368.402 313.464C368.402 311.412 369.59 310.08 371.408 310.08C373.226 310.08 374.414 311.412 374.414 313.464C374.414 315.516 373.226 316.848 371.408 316.848ZM377.828 321.672H379.268V316.542C379.808 317.514 380.978 318.144 382.256 318.144C385.064 318.144 386.648 316.11 386.648 313.464C386.648 310.818 385.1 308.784 382.292 308.784C380.996 308.784 379.826 309.432 379.268 310.422V308.928H377.828V321.672ZM382.148 316.848C380.33 316.848 379.142 315.516 379.142 313.464C379.142 311.412 380.33 310.08 382.148 310.08C383.966 310.08 385.154 311.412 385.154 313.464C385.154 315.516 383.966 316.848 382.148 316.848ZM392.583 318.144C395.283 318.144 397.209 316.182 397.209 313.464C397.209 310.728 395.283 308.784 392.583 308.784C389.901 308.784 387.975 310.728 387.975 313.464C387.975 316.182 389.901 318.144 392.583 318.144ZM392.583 316.848C390.729 316.848 389.451 315.444 389.451 313.464C389.451 311.484 390.729 310.08 392.583 310.08C394.455 310.08 395.733 311.484 395.733 313.464C395.733 315.444 394.455 316.848 392.583 316.848ZM404.857 306.03V315.156C404.857 316.92 405.973 318 407.701 318H409.087V316.722H407.755C406.873 316.722 406.297 316.128 406.297 315.12V310.206H409.087V308.928H406.297V306.03H404.857ZM404.029 310.206V308.928H402.967C401.635 308.928 400.879 309.522 400.501 310.764V308.928H399.061V318H400.501V314.004C400.501 311.862 401.023 310.206 402.859 310.206H404.029ZM417.059 315.084C416.771 316.218 415.835 316.866 414.359 316.866C412.649 316.866 411.407 315.534 411.299 313.662H418.391C418.409 313.536 418.427 313.23 418.427 313.032C418.427 310.62 416.843 308.784 414.197 308.784C411.533 308.784 409.877 310.746 409.877 313.41C409.877 316.002 411.677 318.144 414.359 318.144C416.609 318.144 418.211 316.938 418.517 315.084H417.059ZM414.197 310.008C415.817 310.008 416.843 310.98 416.951 312.51H411.371C411.641 310.908 412.667 310.008 414.197 310.008ZM424.218 318.144C425.496 318.144 426.684 317.496 427.224 316.506V318H428.664V305.202H427.224V310.404C426.684 309.432 425.496 308.784 424.218 308.784C421.392 308.784 419.844 310.818 419.844 313.464C419.844 316.11 421.392 318.144 424.218 318.144ZM424.344 316.848C422.526 316.848 421.32 315.516 421.32 313.464C421.32 311.412 422.526 310.08 424.344 310.08C426.162 310.08 427.35 311.412 427.35 313.464C427.35 315.516 426.162 316.848 424.344 316.848Z" fill="white"/>
<path d="M118.333 306.556C118.333 307.124 118.211 307.664 117.992 308.151C119.189 308.814 120 310.09 120 311.556C120 312.901 119.317 314.087 118.278 314.785C118.314 315 118.333 315.22 118.333 315.444C118.333 317.592 116.592 319.333 114.444 319.333C114.048 319.333 113.665 319.274 113.304 319.163C112.617 320.266 111.394 321 110 321C108.606 321 107.383 320.266 106.696 319.163C106.335 319.274 105.952 319.333 105.556 319.333C103.408 319.333 101.667 317.592 101.667 315.444C101.667 315.22 101.686 315 101.722 314.785C100.683 314.087 100 312.901 100 311.556C100 310.09 100.811 308.814 102.008 308.151C101.789 307.664 101.667 307.124 101.667 306.556C101.667 304.408 103.408 302.667 105.556 302.667C105.952 302.667 106.335 302.726 106.696 302.837C107.383 301.734 108.606 301 110 301C111.394 301 112.617 301.734 113.304 302.837C113.665 302.726 114.048 302.667 114.444 302.667C116.592 302.667 118.333 304.408 118.333 306.556Z" fill="white"/>
<path d="M106.666 312.111L108.888 314.334L113.333 307.667" stroke="#018294" stroke-width="1.5" stroke-linecap="round" stroke-linejoin="round"/>
<path d="M137.601 273H139.131V262.776L145.611 273H147.375V260.4H145.845V270.66L139.347 260.4H137.601V273ZM155.644 273.144C159.19 273.144 161.836 270.408 161.836 266.7C161.836 262.992 159.19 260.256 155.644 260.256C152.098 260.256 149.47 262.992 149.47 266.7C149.47 270.408 152.098 273.144 155.644 273.144ZM155.644 271.758C152.998 271.758 151.054 269.598 151.054 266.7C151.054 263.802 152.998 261.642 155.644 261.642C158.29 261.642 160.252 263.802 160.252 266.7C160.252 269.598 158.29 271.758 155.644 271.758ZM173.676 273.144C176.466 273.144 178.716 271.434 178.986 269.076H177.402C177.222 270.624 175.638 271.758 173.676 271.758C171.048 271.758 169.194 269.976 169.194 266.7C169.194 263.424 171.048 261.642 173.676 261.642C175.602 261.642 177.168 262.776 177.384 264.324H179.004C178.662 261.966 176.412 260.256 173.676 260.256C170.544 260.256 167.61 262.344 167.61 266.7C167.61 271.038 170.526 273.144 173.676 273.144ZM184.873 273.144C187.573 273.144 189.499 271.182 189.499 268.464C189.499 265.728 187.573 263.784 184.873 263.784C182.191 263.784 180.265 265.728 180.265 268.464C180.265 271.182 182.191 273.144 184.873 273.144ZM184.873 271.848C183.019 271.848 181.741 270.444 181.741 268.464C181.741 266.484 183.019 265.08 184.873 265.08C186.745 265.08 188.023 266.484 188.023 268.464C188.023 270.444 186.745 271.848 184.873 271.848ZM195.203 273.144C196.481 273.144 197.669 272.496 198.209 271.506V273H199.649V260.202H198.209V265.404C197.669 264.432 196.481 263.784 195.203 263.784C192.377 263.784 190.829 265.818 190.829 268.464C190.829 271.11 192.377 273.144 195.203 273.144ZM195.329 271.848C193.511 271.848 192.305 270.516 192.305 268.464C192.305 266.412 193.511 265.08 195.329 265.08C197.147 265.08 198.335 266.412 198.335 268.464C198.335 270.516 197.147 271.848 195.329 271.848ZM201.983 260.202V262.218H203.639V260.202H201.983ZM202.091 273H203.531V263.928H202.091V273ZM205.906 273H207.346V268.104C207.346 266.34 208.462 265.098 210.01 265.098C211.378 265.098 212.278 266.142 212.278 267.69V273H213.718V267.456C213.718 265.242 212.386 263.784 210.334 263.784C208.948 263.784 207.814 264.414 207.346 265.674V263.928H205.906V273ZM223.031 263.928V265.26C222.473 264.396 221.249 263.784 220.025 263.784C217.199 263.784 215.651 265.818 215.651 268.464C215.651 271.11 217.199 273.144 220.025 273.144C221.393 273.144 222.599 272.586 223.031 271.74V273.342C223.031 274.548 222.203 275.43 221.033 275.43H216.839V276.672H221.123C223.085 276.672 224.471 275.322 224.471 273.396V263.928H223.031ZM220.151 271.848C218.315 271.848 217.127 270.516 217.127 268.464C217.127 266.412 218.315 265.08 220.151 265.08C221.969 265.08 223.157 266.412 223.157 268.464C223.157 270.516 221.969 271.848 220.151 271.848ZM231.201 273H232.641V268.104C232.641 266.34 233.757 265.098 235.305 265.098C236.673 265.098 237.573 266.142 237.573 267.69V273H239.013V267.456C239.013 265.242 237.681 263.784 235.629 263.784C234.243 263.784 233.109 264.414 232.641 265.674V263.928H231.201V273ZM248.056 270.084C247.768 271.218 246.832 271.866 245.356 271.866C243.646 271.866 242.404 270.534 242.296 268.662H249.388C249.406 268.536 249.424 268.23 249.424 268.032C249.424 265.62 247.84 263.784 245.194 263.784C242.53 263.784 240.874 265.746 240.874 268.41C240.874 271.002 242.674 273.144 245.356 273.144C247.606 273.144 249.208 271.938 249.514 270.084H248.056ZM245.194 265.008C246.814 265.008 247.84 265.98 247.948 267.51H242.368C242.638 265.908 243.664 265.008 245.194 265.008ZM258.023 270.084C257.735 271.218 256.799 271.866 255.323 271.866C253.613 271.866 252.371 270.534 252.263 268.662H259.355C259.373 268.536 259.391 268.23 259.391 268.032C259.391 265.62 257.807 263.784 255.161 263.784C252.497 263.784 250.841 265.746 250.841 268.41C250.841 271.002 252.641 273.144 255.323 273.144C257.573 273.144 259.175 271.938 259.481 270.084H258.023ZM255.161 265.008C256.781 265.008 257.807 265.98 257.915 267.51H252.335C252.605 265.908 253.631 265.008 255.161 265.008ZM265.182 273.144C266.46 273.144 267.648 272.496 268.188 271.506V273H269.628V260.202H268.188V265.404C267.648 264.432 266.46 263.784 265.182 263.784C262.356 263.784 260.808 265.818 260.808 268.464C260.808 271.11 262.356 273.144 265.182 273.144ZM265.308 271.848C263.49 271.848 262.284 270.516 262.284 268.464C262.284 266.412 263.49 265.08 265.308 265.08C267.126 265.08 268.314 266.412 268.314 268.464C268.314 270.516 267.126 271.848 265.308 271.848ZM278.73 270.084C278.442 271.218 277.506 271.866 276.03 271.866C274.32 271.866 273.078 270.534 272.97 268.662H280.062C280.08 268.536 280.098 268.23 280.098 268.032C280.098 265.62 278.514 263.784 275.868 263.784C273.204 263.784 271.548 265.746 271.548 268.41C271.548 271.002 273.348 273.144 276.03 273.144C278.28 273.144 279.882 271.938 280.188 270.084H278.73ZM275.868 265.008C277.488 265.008 278.514 265.98 278.622 267.51H273.042C273.312 265.908 274.338 265.008 275.868 265.008ZM285.889 273.144C287.167 273.144 288.355 272.496 288.895 271.506V273H290.335V260.202H288.895V265.404C288.355 264.432 287.167 263.784 285.889 263.784C283.063 263.784 281.515 265.818 281.515 268.464C281.515 271.11 283.063 273.144 285.889 273.144ZM286.015 271.848C284.197 271.848 282.991 270.516 282.991 268.464C282.991 266.412 284.197 265.08 286.015 265.08C287.833 265.08 289.021 266.412 289.021 268.464C289.021 270.516 287.833 271.848 286.015 271.848ZM292.327 273.9V275.16H293.047C294.361 275.16 295.171 274.332 295.171 272.802V271.164H293.731V272.73C293.731 273.522 293.443 273.9 292.957 273.9H292.327ZM302.044 273H303.574V267.852H306.778C309.28 267.852 310.792 266.34 310.792 264.126C310.792 261.912 309.28 260.4 306.778 260.4H302.044V273ZM303.574 266.484V261.768H306.778C308.56 261.768 309.226 262.884 309.226 264.126C309.226 265.368 308.56 266.484 306.778 266.484H303.574ZM312.519 273H313.959V260.202H312.519V273ZM324.214 263.928H322.774V268.824C322.774 270.588 321.676 271.83 320.11 271.83C318.742 271.83 317.842 270.786 317.842 269.238V263.928H316.402V269.472C316.402 271.686 317.734 273.144 319.786 273.144C321.19 273.144 322.306 272.514 322.774 271.254V273H324.214V263.928ZM333.527 263.928V265.26C332.969 264.396 331.745 263.784 330.521 263.784C327.695 263.784 326.147 265.818 326.147 268.464C326.147 271.11 327.695 273.144 330.521 273.144C331.889 273.144 333.095 272.586 333.527 271.74V273.342C333.527 274.548 332.699 275.43 331.529 275.43H327.335V276.672H331.619C333.581 276.672 334.967 275.322 334.967 273.396V263.928H333.527ZM330.647 271.848C328.811 271.848 327.623 270.516 327.623 268.464C327.623 266.412 328.811 265.08 330.647 265.08C332.465 265.08 333.653 266.412 333.653 268.464C333.653 270.516 332.465 271.848 330.647 271.848ZM337.156 267.924H343.726V266.664H337.156V267.924ZM356.231 273L353.873 270.408L354.341 269.562C354.683 268.968 355.331 268.554 356.105 268.554V267.168C355.205 267.168 354.323 267.33 353.459 268.752L352.991 269.454L350.381 266.592C351.767 265.872 353.063 264.954 353.063 263.082C353.063 261.426 351.767 260.256 349.913 260.256C348.041 260.256 346.727 261.48 346.727 263.208C346.727 264.216 347.447 265.26 348.257 266.178C346.889 266.898 345.629 267.816 345.629 269.616C345.629 271.83 347.141 273.144 349.553 273.144C350.795 273.144 352.181 272.712 353.171 271.506L354.575 273H356.231ZM348.113 263.244C348.113 262.182 348.851 261.426 349.913 261.426C350.957 261.426 351.695 262.128 351.695 263.118C351.695 264.324 350.669 264.954 349.463 265.566C348.815 264.864 348.113 264.036 348.113 263.244ZM349.553 271.848C347.951 271.848 347.051 271.038 347.051 269.634C347.051 268.446 348.023 267.798 349.193 267.204L352.271 270.516C351.479 271.524 350.435 271.848 349.553 271.848ZM357.687 267.924H364.257V266.664H357.687V267.924ZM366.52 273H368.05V267.852H371.254C373.756 267.852 375.268 266.34 375.268 264.126C375.268 261.912 373.756 260.4 371.254 260.4H366.52V273ZM368.05 266.484V261.768H371.254C373.036 261.768 373.702 262.884 373.702 264.126C373.702 265.368 373.036 266.484 371.254 266.484H368.05ZM376.995 273H378.435V260.202H376.995V273ZM384.248 263.784C382.214 263.784 380.558 265.08 380.396 266.826H381.764C381.836 265.836 382.88 265.008 384.212 265.008C385.76 265.008 386.642 265.854 386.642 267.096C386.642 267.384 386.462 267.582 386.066 267.582H384.014C381.818 267.582 380.396 268.68 380.396 270.408C380.396 272.064 381.638 273.144 383.546 273.144C384.95 273.144 386.156 272.478 386.642 271.434V273H388.082V267.15C388.082 265.134 386.606 263.784 384.248 263.784ZM383.762 271.92C382.61 271.92 381.872 271.326 381.872 270.39C381.872 269.328 382.754 268.68 384.104 268.68H386.642V268.914C386.642 270.786 385.58 271.92 383.762 271.92ZM397.114 263.928H395.602L393.028 271.128L390.454 263.928H388.96L392.344 273.144L391.192 276.672H392.578L394.234 271.758L397.114 263.928ZM397.689 271.308V273H399.291V271.308H397.689Z" fill="white"/>
<path d="M118.333 262.556C118.333 263.124 118.211 263.664 117.992 264.151C119.189 264.814 120 266.09 120 267.556C120 268.901 119.317 270.087 118.278 270.785C118.314 271 118.333 271.22 118.333 271.444C118.333 273.592 116.592 275.333 114.444 275.333C114.048 275.333 113.665 275.274 113.304 275.163C112.617 276.266 111.394 277 110 277C108.606 277 107.383 276.266 106.696 275.163C106.335 275.274 105.952 275.333 105.556 275.333C103.408 275.333 101.667 273.592 101.667 271.444C101.667 271.22 101.686 271 101.722 270.785C100.683 270.087 100 268.901 100 267.556C100 266.09 100.811 264.814 102.008 264.151C101.789 263.664 101.667 263.124 101.667 262.556C101.667 260.408 103.408 258.667 105.556 258.667C105.952 258.667 106.335 258.726 106.696 258.837C107.383 257.734 108.606 257 110 257C111.394 257 112.617 257.734 113.304 258.837C113.665 258.726 114.048 258.667 114.444 258.667C116.592 258.667 118.333 260.408 118.333 262.556Z" fill="white"/>
<path d="M106.666 268.111L108.888 270.334L113.333 263.667" stroke="#018294" stroke-width="1.5" stroke-linecap="round" stroke-linejoin="round"/>
</svg>
